<?xml version="1.0" encoding="UTF-8"?><svg id="Layer_2" xmlns="http://www.w3.org/2000/svg" xmlns:xlink="http://www.w3.org/1999/xlink" viewBox="0 0 20 16"><defs><style>.cls-1,.cls-2{fill:none;}.cls-3{clip-path:url(#clippath);}.cls-4{fill:#52638f;}.cls-2{clip-rule:evenodd;}.cls-5{clip-path:url(#clippath-1);}.cls-6{clip-path:url(#clippath-4);}.cls-7{clip-path:url(#clippath-3);}.cls-8{clip-path:url(#clippath-2);}.cls-9{isolation:isolate;}</style><clipPath id="clippath"><polygon class="cls-2" points="0 8 0 16 20 16 20 8 20 0 0 0 0 8"/></clipPath><clipPath id="clippath-1"><rect class="cls-1" width="20" height="17"/></clipPath><clipPath id="clippath-2"><rect class="cls-1" width="20" height="16"/></clipPath><clipPath id="clippath-3"><path class="cls-2" d="M20,1.89c-.74,.32-1.53,.54-2.36,.64,.85-.5,1.5-1.29,1.8-2.24-.79,.46-1.67,.8-2.61,.98-.75-.79-1.82-1.28-2.99-1.28-2.27,0-4.1,1.81-4.1,4.04,0,.32,.04,.63,.11,.92C6.44,4.79,3.42,3.18,1.39,.74c-.35,.6-.56,1.29-.56,2.03,0,1.4,.73,2.64,1.83,3.36-.67-.02-1.31-.2-1.86-.51v.05c0,1.96,1.41,3.59,3.29,3.96-.34,.09-.71,.14-1.08,.14-.26,0-.52-.03-.77-.07,.52,1.6,2.04,2.77,3.83,2.8-1.4,1.08-3.17,1.73-5.1,1.73-.33,0-.66-.02-.98-.06,1.82,1.15,3.97,1.81,6.29,1.81,7.55,0,11.68-6.15,11.68-11.49,0-.18,0-.35-.01-.52,.8-.57,1.5-1.28,2.05-2.09"/></clipPath><clipPath id="clippath-4"><rect class="cls-1" width="20" height="16"/></clipPath></defs><g id="Layer_2-2"><g class="cls-3"><g class="cls-5"><g class="cls-9"><g class="cls-8"><g class="cls-7"><g class="cls-6"><rect class="cls-4" x="-5" y="-5" width="30" height="26"/></g></g></g></g></g></g></g></svg>