<?xml version="1.0" encoding="UTF-8"?><svg id="Layer_2" xmlns="http://www.w3.org/2000/svg" viewBox="0 0 552.16 69.69"><defs><style>.cls-1{fill:#fff;}</style></defs><g id="Layer_2-2"><g><path class="cls-1" d="M16.35,6.68h7.1v25.81h13.15v6.59H16.35V6.68Z"/><path class="cls-1" d="M45.52,6.68h7.1V39.08h-7.1V6.68Z"/><path class="cls-1" d="M64.18,6.68h12.01c1.39,0,2.8,.1,4.21,.3,1.41,.2,2.68,.6,3.8,1.19s2.03,1.43,2.73,2.49c.7,1.07,1.05,2.49,1.05,4.26s-.51,3.35-1.52,4.55c-1.02,1.21-2.36,2.07-4.03,2.59v.09c1.06,.15,2.03,.45,2.89,.89,.86,.44,1.61,1.01,2.23,1.69,.62,.69,1.1,1.49,1.43,2.4,.33,.92,.5,1.89,.5,2.93,0,1.71-.36,3.13-1.09,4.28-.73,1.14-1.67,2.07-2.82,2.77-1.15,.7-2.45,1.21-3.89,1.51-1.44,.31-2.87,.46-4.3,.46h-13.2V6.68Zm7.1,12.95h5.14c.55,0,1.08-.06,1.62-.18,.53-.12,1.01-.32,1.43-.6,.42-.27,.77-.64,1.02-1.1,.26-.46,.39-1.01,.39-1.65s-.14-1.23-.43-1.67c-.29-.44-.66-.79-1.11-1.03-.46-.24-.97-.42-1.55-.53-.58-.11-1.14-.16-1.68-.16h-4.82v6.91Zm0,13.41h6.37c.55,0,1.1-.06,1.66-.18,.56-.12,1.07-.34,1.52-.64,.46-.3,.83-.7,1.12-1.19,.29-.49,.43-1.08,.43-1.78,0-.76-.19-1.38-.57-1.85-.38-.47-.86-.83-1.43-1.08s-1.2-.41-1.87-.5c-.67-.09-1.29-.14-1.87-.14h-5.37v7.37Z"/><path class="cls-1" d="M98.76,6.68h12.47c1.64,0,3.19,.16,4.66,.48,1.47,.32,2.76,.85,3.87,1.6,1.11,.75,1.99,1.75,2.64,3.02,.65,1.27,.98,2.85,.98,4.74,0,2.29-.59,4.23-1.77,5.83-1.18,1.6-2.91,2.62-5.19,3.04l8.19,13.68h-8.51l-6.73-12.95h-3.5v12.95h-7.1V6.68Zm7.1,13.41h4.19c.64,0,1.31-.02,2.03-.07,.71-.05,1.36-.18,1.93-.41,.58-.23,1.05-.59,1.43-1.08,.38-.49,.57-1.17,.57-2.06,0-.82-.17-1.48-.5-1.97-.33-.49-.76-.86-1.27-1.12-.52-.26-1.11-.43-1.77-.53-.67-.09-1.32-.14-1.96-.14h-4.64v7.37Z"/><path class="cls-1" d="M143.94,6.68h5.87l14.01,32.4h-8.01l-2.78-6.86h-12.51l-2.69,6.86h-7.83l13.92-32.4Zm2.73,9.43l-3.91,10.07h7.87l-3.96-10.07Z"/><path class="cls-1" d="M172.15,6.68h12.47c1.64,0,3.19,.16,4.66,.48,1.47,.32,2.76,.85,3.87,1.6,1.11,.75,1.99,1.75,2.64,3.02,.65,1.27,.98,2.85,.98,4.74,0,2.29-.59,4.23-1.77,5.83-1.18,1.6-2.91,2.62-5.19,3.04l8.19,13.68h-8.51l-6.73-12.95h-3.5v12.95h-7.1V6.68Zm7.1,13.41h4.19c.64,0,1.31-.02,2.02-.07s1.36-.18,1.93-.41c.58-.23,1.05-.59,1.43-1.08,.38-.49,.57-1.17,.57-2.06,0-.82-.17-1.48-.5-1.97-.33-.49-.76-.86-1.27-1.12-.52-.26-1.11-.43-1.77-.53-.67-.09-1.32-.14-1.96-.14h-4.64v7.37Z"/><path class="cls-1" d="M212.97,25.26l-12.1-18.58h8.83l6.83,12.13,7.23-12.13h8.42l-12.1,18.58v13.82h-7.1v-13.82Z"/><path class="cls-1" d="M266.35,28.37c-.24,1.62-.74,3.11-1.48,4.48-.74,1.37-1.68,2.56-2.82,3.57-1.14,1.01-2.44,1.79-3.91,2.36-1.47,.56-3.04,.85-4.71,.85s-3.11-.28-4.41-.85c-1.3-.56-2.39-1.35-3.25-2.36-.87-1.01-1.48-2.2-1.84-3.57-.36-1.37-.43-2.87-.18-4.48,.21-1.62,.7-3.11,1.46-4.48,.76-1.37,1.71-2.56,2.84-3.57,1.14-1.01,2.43-1.79,3.89-2.36,1.46-.56,3-.85,4.64-.85s3.15,.28,4.46,.85c1.3,.56,2.39,1.35,3.25,2.36,.86,1.01,1.48,2.2,1.84,3.57,.36,1.37,.44,2.87,.23,4.48Zm-3.28,0c.18-1.19,.15-2.3-.09-3.34-.24-1.04-.66-1.94-1.25-2.7-.59-.76-1.35-1.36-2.28-1.81-.93-.44-2.01-.66-3.25-.66s-2.39,.22-3.44,.66c-1.05,.44-1.96,1.05-2.75,1.81-.79,.76-1.44,1.66-1.96,2.7-.52,1.04-.87,2.15-1.05,3.34s-.16,2.3,.07,3.34c.23,1.04,.64,1.94,1.23,2.7,.59,.76,1.35,1.37,2.28,1.81,.92,.44,2.01,.66,3.25,.66s2.39-.22,3.44-.66c1.05-.44,1.97-1.04,2.78-1.81,.8-.76,1.46-1.66,1.98-2.7,.52-1.04,.87-2.15,1.05-3.34Z"/><path class="cls-1" d="M283.09,20.41h-5.06l-2.62,18.67h-3l2.59-18.67h-4.5l.41-2.75h4.5l.82-5.86c.39-2.84,1.33-4.86,2.8-6.06,1.47-1.2,3.28-1.81,5.44-1.81,.42,0,.85,.03,1.27,.09,.42,.06,.85,.14,1.27,.23l-.91,2.75c-.36-.09-.73-.17-1.11-.23-.38-.06-.76-.09-1.15-.09-.82,0-1.5,.14-2.06,.41-.56,.27-1,.66-1.33,1.17-.33,.5-.6,1.09-.79,1.76-.2,.67-.34,1.39-.43,2.15l-.78,5.49h5.06l-.41,2.75Z"/><path class="cls-1" d="M301.34,6.68h10.65c2.58,0,5.03,.29,7.35,.87,2.32,.58,4.35,1.52,6.08,2.81,1.73,1.3,3.1,2.98,4.12,5.06s1.52,4.59,1.52,7.55c0,2.62-.49,4.94-1.48,6.93-.99,2-2.31,3.68-3.98,5.03-1.67,1.36-3.59,2.39-5.78,3.09-2.18,.7-4.47,1.05-6.87,1.05h-11.6V6.68Zm7.1,25.81h3.69c1.64,0,3.16-.17,4.57-.5,1.41-.34,2.63-.89,3.66-1.67,1.03-.78,1.84-1.8,2.43-3.07,.59-1.27,.89-2.81,.89-4.65,0-1.59-.3-2.97-.89-4.14-.59-1.17-1.39-2.14-2.39-2.91-1-.76-2.18-1.33-3.53-1.72-1.35-.38-2.77-.57-4.25-.57h-4.19v19.22Z"/><path class="cls-1" d="M341.24,6.68h21.89v6.59h-14.79v6.04h13.97v6.59h-13.97v6.59h15.61v6.59h-22.71V6.68Z"/><path class="cls-1" d="M375,6.68h21.61v6.59h-14.52v6.59h13.42v6.59h-13.42v12.63h-7.1V6.68Z"/><path class="cls-1" d="M407.08,6.68h21.89v6.59h-14.79v6.04h13.97v6.59h-13.97v6.59h15.61v6.59h-22.71V6.68Z"/><path class="cls-1" d="M440.57,6.68h9.65l13.7,22.51h.09V6.68h7.1V39.08h-9.28l-14.06-23.06h-.09v23.06h-7.1V6.68Z"/><path class="cls-1" d="M498.68,14.6c-.58-.73-1.36-1.27-2.34-1.62-.99-.35-1.92-.53-2.8-.53-.52,0-1.05,.06-1.59,.18-.55,.12-1.06,.31-1.55,.57-.49,.26-.88,.6-1.18,1.03-.3,.43-.46,.95-.46,1.56,0,.98,.36,1.72,1.09,2.24,.73,.52,1.64,.96,2.75,1.33,1.11,.37,2.3,.73,3.57,1.1,1.27,.37,2.46,.88,3.57,1.56,1.11,.67,2.03,1.57,2.75,2.7,.73,1.13,1.09,2.64,1.09,4.53s-.33,3.37-1,4.71c-.67,1.34-1.57,2.46-2.71,3.34-1.14,.89-2.46,1.54-3.96,1.97s-3.09,.64-4.75,.64c-2.09,0-4.04-.32-5.82-.96-1.79-.64-3.46-1.68-5.01-3.11l5.05-5.58c.73,.98,1.65,1.73,2.75,2.27,1.11,.53,2.25,.8,3.44,.8,.58,0,1.16-.07,1.75-.21s1.12-.34,1.59-.62c.47-.27,.85-.62,1.14-1.05,.29-.43,.43-.93,.43-1.51,0-.98-.37-1.75-1.12-2.31-.74-.56-1.68-1.04-2.8-1.44-1.12-.4-2.34-.79-3.64-1.19-1.3-.4-2.52-.93-3.64-1.6-1.12-.67-2.06-1.56-2.8-2.65-.74-1.1-1.12-2.55-1.12-4.35s.34-3.26,1.02-4.58c.68-1.31,1.59-2.41,2.73-3.29,1.14-.88,2.45-1.55,3.94-1.99,1.49-.44,3.02-.66,4.6-.66,1.82,0,3.58,.26,5.28,.78,1.7,.52,3.23,1.39,4.6,2.61l-4.87,5.35Z"/><path class="cls-1" d="M514.24,6.68h21.89v6.59h-14.79v6.04h13.97v6.59h-13.97v6.59h15.61v6.59h-22.71V6.68Z"/><path class="cls-1" d="M179.17,55.98h5.63v1.37h-4.12v2.09h3.9v1.37h-3.9v2.3h4.33v1.37h-5.84v-8.5Z"/><path class="cls-1" d="M187.85,55.98h3.35c.56,0,1.1,.09,1.62,.26,.52,.17,.98,.43,1.38,.79,.4,.35,.72,.79,.96,1.33,.24,.53,.36,1.16,.36,1.88s-.14,1.36-.41,1.89-.63,.97-1.07,1.32c-.44,.35-.92,.61-1.45,.78-.53,.17-1.05,.26-1.57,.26h-3.17v-8.5Zm2.64,7.13c.47,0,.92-.05,1.34-.16,.42-.11,.79-.28,1.1-.5,.31-.23,.56-.52,.74-.89,.18-.36,.27-.81,.27-1.33s-.08-.95-.24-1.32-.38-.67-.67-.89-.62-.4-1.01-.5c-.39-.11-.81-.16-1.28-.16h-1.38v5.76h1.13Z"/><path class="cls-1" d="M198.26,55.98h1.51v8.5h-1.51v-8.5Z"/><path class="cls-1" d="M204.72,57.35h-2.6v-1.37h6.72v1.37h-2.6v7.13h-1.51v-7.13Z"/><path class="cls-1" d="M210.75,60.27c0-.68,.11-1.3,.34-1.85s.53-1.03,.93-1.42c.4-.39,.87-.69,1.42-.91s1.15-.32,1.81-.32c.66,0,1.27,.09,1.82,.29,.55,.2,1.03,.5,1.43,.89,.4,.39,.71,.86,.94,1.42,.22,.55,.34,1.17,.34,1.85s-.11,1.27-.34,1.81c-.22,.54-.54,1.01-.94,1.4-.4,.39-.88,.7-1.43,.92-.55,.22-1.16,.33-1.82,.34-.66,0-1.26-.11-1.81-.32s-1.02-.51-1.42-.9c-.4-.39-.71-.85-.93-1.4s-.34-1.15-.34-1.81Zm1.58-.1c0,.46,.07,.88,.21,1.26,.14,.38,.34,.72,.59,1,.26,.28,.56,.5,.92,.66,.36,.16,.75,.24,1.19,.24s.84-.08,1.2-.24c.36-.16,.67-.38,.92-.66,.26-.28,.45-.61,.59-1,.14-.38,.21-.8,.21-1.26,0-.42-.07-.82-.21-1.19-.14-.37-.34-.69-.59-.97s-.56-.49-.92-.65c-.36-.16-.76-.23-1.2-.23s-.84,.08-1.19,.23c-.36,.16-.66,.37-.92,.65s-.45,.6-.59,.97c-.14,.37-.21,.76-.21,1.19Z"/><path class="cls-1" d="M222.55,55.98h2.95c.41,0,.8,.04,1.18,.11s.72,.21,1.01,.39c.3,.18,.53,.43,.71,.74s.26,.71,.26,1.19c0,.62-.17,1.13-.51,1.55-.34,.42-.83,.67-1.46,.76l2.26,3.76h-1.82l-1.97-3.6h-1.1v3.6h-1.51v-8.5Zm2.69,3.6c.22,0,.43,0,.65-.03s.41-.07,.59-.14,.33-.19,.44-.35c.11-.16,.17-.37,.17-.65,0-.25-.05-.45-.16-.6-.1-.15-.24-.27-.41-.34-.17-.08-.35-.13-.56-.15s-.4-.04-.59-.04h-1.31v2.3h1.18Z"/><path class="cls-1" d="M236.31,55.98h1.51v8.5h-1.51v-8.5Z"/><path class="cls-1" d="M241.03,55.98h2l4.12,6.31h.02v-6.31h1.51v8.5h-1.92l-4.2-6.52h-.02v6.52h-1.51v-8.5Z"/><path class="cls-1" d="M262.65,57.98c-.31-.34-.61-.56-.91-.67-.29-.11-.59-.17-.88-.17-.44,0-.84,.08-1.19,.23-.36,.16-.66,.37-.92,.65s-.45,.6-.59,.97c-.14,.37-.21,.76-.21,1.19,0,.46,.07,.88,.21,1.26,.14,.38,.34,.72,.59,1,.26,.28,.56,.5,.92,.66,.36,.16,.75,.24,1.19,.24,.34,0,.68-.08,1-.25s.63-.43,.91-.79l1.25,.89c-.38,.53-.85,.91-1.4,1.15-.55,.24-1.14,.36-1.76,.36-.66,0-1.26-.11-1.81-.32s-1.02-.51-1.42-.9c-.4-.39-.71-.85-.93-1.4-.22-.54-.34-1.15-.34-1.81s.11-1.3,.34-1.85c.22-.56,.53-1.03,.93-1.42,.4-.39,.87-.69,1.42-.91s1.15-.32,1.81-.32c.58,0,1.11,.1,1.6,.31,.49,.2,.95,.55,1.37,1.04l-1.18,.86Z"/><path class="cls-1" d="M266.39,55.98h1.51v3.38h3.97v-3.38h1.51v8.5h-1.51v-3.74h-3.97v3.74h-1.51v-8.5Z"/><path class="cls-1" d="M276.58,55.98h1.51v8.5h-1.51v-8.5Z"/><path class="cls-1" d="M281.3,55.98h5.63v1.37h-4.12v2.09h3.9v1.37h-3.9v2.3h4.33v1.37h-5.84v-8.5Z"/><path class="cls-1" d="M289.98,55.98h5.48v1.37h-3.97v2.23h3.74v1.37h-3.74v3.53h-1.51v-8.5Z"/><path class="cls-1" d="M298.08,59.57c0-.26,.09-.48,.28-.66,.19-.18,.41-.28,.68-.28s.48,.09,.67,.26c.19,.18,.29,.39,.29,.65s-.09,.48-.28,.66c-.19,.18-.41,.28-.68,.28-.13,0-.25-.02-.37-.07-.12-.05-.22-.11-.31-.19-.09-.08-.16-.18-.21-.29-.05-.11-.08-.23-.08-.36Zm0,4.07c0-.26,.09-.48,.28-.66,.19-.18,.41-.28,.68-.28s.48,.09,.67,.26c.19,.18,.29,.39,.29,.65s-.09,.48-.28,.66c-.19,.18-.41,.28-.68,.28-.13,0-.25-.02-.37-.07-.12-.05-.22-.11-.31-.19-.09-.08-.16-.18-.21-.29-.05-.11-.08-.23-.08-.36Z"/><path class="cls-1" d="M307.84,55.98h1.31l3.66,8.5h-1.73l-.79-1.94h-3.68l-.77,1.94h-1.69l3.7-8.5Zm1.92,5.26l-1.31-3.46-1.33,3.46h2.64Z"/><path class="cls-1" d="M314.01,55.41h1.44v9.07h-1.44v-9.07Z"/><path class="cls-1" d="M318.62,62.1c.05,.43,.22,.77,.5,1.01,.29,.24,.64,.36,1.04,.36,.36,0,.66-.07,.91-.22s.46-.33,.64-.56l1.03,.78c-.34,.42-.71,.71-1.13,.89s-.85,.26-1.31,.26c-.43,0-.84-.07-1.22-.22-.38-.14-.72-.35-1-.61-.28-.26-.5-.58-.67-.95-.16-.37-.25-.79-.25-1.24s.08-.87,.25-1.24c.16-.37,.39-.69,.67-.95,.28-.26,.61-.47,1-.61,.38-.14,.79-.22,1.22-.22,.4,0,.77,.07,1.1,.21s.62,.34,.85,.61c.24,.26,.42,.59,.55,.98s.2,.83,.2,1.34v.4h-4.39Zm2.95-1.08c0-.42-.14-.76-.4-1-.26-.24-.61-.37-1.07-.37-.43,0-.77,.12-1.03,.37-.25,.25-.41,.58-.46,1h2.95Z"/><path class="cls-1" d="M326.2,61.38l-1.99-2.66h1.75l1.15,1.73,1.25-1.73h1.64l-1.97,2.66,2.32,3.1h-1.75l-1.5-2.06-1.51,2.06h-1.7l2.32-3.1Z"/><path class="cls-1" d="M335.56,55.98h3.31c.32,0,.64,.04,.95,.11s.59,.2,.83,.37c.24,.17,.44,.39,.59,.67,.15,.27,.23,.6,.23,.98,0,.48-.14,.88-.41,1.19-.27,.31-.63,.54-1.07,.67v.02c.26,.03,.51,.11,.74,.22s.42,.26,.58,.44,.29,.39,.38,.62c.09,.24,.14,.49,.14,.76,0,.46-.09,.85-.28,1.16-.18,.31-.43,.56-.73,.74-.3,.19-.64,.32-1.03,.4-.39,.08-.78,.12-1.18,.12h-3.06v-8.5Zm1.51,3.46h1.38c.5,0,.88-.1,1.13-.29,.25-.2,.38-.45,.38-.77,0-.37-.13-.64-.39-.82-.26-.18-.68-.27-1.25-.27h-1.25v2.16Zm0,3.74h1.39c.19,0,.4-.01,.62-.04s.42-.08,.61-.17c.18-.09,.34-.21,.46-.38s.18-.39,.18-.67c0-.45-.15-.76-.44-.94-.29-.18-.75-.26-1.36-.26h-1.45v2.45Z"/><path class="cls-1" d="M347.17,63.69h-.04c-.21,.33-.47,.57-.79,.71s-.67,.22-1.06,.22c-.26,0-.52-.04-.77-.11-.25-.07-.48-.18-.67-.32s-.35-.32-.47-.54c-.12-.22-.18-.47-.18-.76,0-.31,.06-.58,.17-.8,.11-.22,.26-.4,.45-.55,.19-.15,.41-.27,.65-.35,.25-.09,.51-.15,.77-.2,.27-.04,.54-.07,.81-.08,.27-.01,.53-.02,.77-.02h.36v-.16c0-.36-.12-.63-.37-.81-.25-.18-.56-.27-.95-.27-.3,0-.59,.05-.85,.16s-.49,.25-.68,.44l-.76-.76c.32-.33,.69-.56,1.12-.71s.87-.22,1.33-.22c.41,0,.75,.05,1.03,.14,.28,.09,.51,.21,.7,.35,.18,.14,.33,.31,.43,.5,.1,.19,.17,.38,.22,.57,.04,.19,.07,.38,.08,.56,0,.18,.01,.34,.01,.47v3.31h-1.3v-.79Zm-.08-1.79h-.3c-.2,0-.42,0-.67,.02-.25,.02-.48,.05-.7,.11-.22,.06-.41,.15-.56,.26-.15,.12-.23,.28-.23,.49,0,.14,.03,.25,.09,.34,.06,.09,.14,.17,.23,.23,.1,.06,.2,.11,.32,.14,.12,.03,.24,.04,.36,.04,.5,0,.86-.12,1.1-.35,.24-.24,.35-.56,.35-.97v-.32Z"/><path class="cls-1" d="M353.44,60.32c-.28-.39-.66-.59-1.13-.59-.19,0-.38,.05-.56,.14-.18,.1-.28,.25-.28,.47,0,.18,.08,.3,.23,.38,.15,.08,.34,.15,.58,.2,.23,.06,.48,.11,.75,.17,.27,.06,.52,.15,.75,.28,.23,.12,.42,.29,.58,.51,.15,.22,.23,.51,.23,.89,0,.34-.07,.63-.22,.87-.15,.24-.34,.43-.58,.57-.24,.14-.5,.25-.8,.31s-.59,.1-.89,.1c-.45,0-.86-.06-1.24-.19s-.71-.36-1.01-.7l.96-.9c.18,.21,.38,.38,.59,.51,.21,.13,.47,.2,.77,.2,.1,0,.21-.01,.32-.04,.11-.02,.22-.06,.31-.12,.1-.06,.17-.13,.23-.21,.06-.08,.09-.18,.09-.29,0-.2-.08-.35-.23-.44-.15-.1-.34-.17-.58-.23-.23-.06-.48-.12-.75-.17-.27-.05-.52-.14-.75-.25s-.42-.28-.58-.49c-.15-.21-.23-.5-.23-.86,0-.32,.07-.6,.2-.83s.31-.43,.52-.58,.46-.26,.74-.34c.28-.07,.56-.11,.85-.11,.38,0,.76,.07,1.14,.2s.68,.36,.91,.68l-.96,.86Z"/><path class="cls-1" d="M359.13,60.32c-.28-.39-.66-.59-1.13-.59-.19,0-.38,.05-.56,.14-.18,.1-.28,.25-.28,.47,0,.18,.08,.3,.23,.38,.15,.08,.34,.15,.58,.2,.23,.06,.48,.11,.75,.17,.27,.06,.52,.15,.75,.28,.23,.12,.42,.29,.58,.51,.15,.22,.23,.51,.23,.89,0,.34-.07,.63-.22,.87-.15,.24-.34,.43-.58,.57-.24,.14-.5,.25-.8,.31s-.59,.1-.89,.1c-.45,0-.86-.06-1.24-.19s-.71-.36-1.01-.7l.96-.9c.18,.21,.38,.38,.59,.51,.21,.13,.47,.2,.77,.2,.1,0,.21-.01,.32-.04,.11-.02,.22-.06,.31-.12,.1-.06,.17-.13,.23-.21,.06-.08,.09-.18,.09-.29,0-.2-.08-.35-.23-.44-.15-.1-.34-.17-.58-.23-.23-.06-.48-.12-.75-.17-.27-.05-.52-.14-.75-.25s-.42-.28-.58-.49c-.15-.21-.23-.5-.23-.86,0-.32,.07-.6,.2-.83s.31-.43,.52-.58,.46-.26,.74-.34c.28-.07,.56-.11,.85-.11,.38,0,.76,.07,1.14,.2s.68,.36,.91,.68l-.96,.86Z"/><path class="cls-1" d="M361.46,61.6c0-.46,.08-.87,.25-1.24,.16-.37,.39-.69,.67-.95,.28-.26,.61-.47,1-.61,.38-.14,.79-.22,1.22-.22s.84,.07,1.22,.22,.72,.35,1,.61c.28,.26,.5,.58,.67,.95s.25,.79,.25,1.24-.08,.87-.25,1.24c-.16,.37-.39,.69-.67,.95s-.61,.47-1,.61c-.38,.14-.79,.22-1.22,.22s-.84-.07-1.22-.22c-.38-.14-.72-.35-1-.61-.28-.26-.5-.58-.67-.95-.16-.37-.25-.79-.25-1.24Zm1.44,0c0,.22,.04,.44,.11,.65s.19,.39,.34,.55c.15,.16,.33,.29,.53,.38,.21,.1,.44,.14,.71,.14s.5-.05,.71-.14c.21-.1,.39-.22,.53-.38,.15-.16,.26-.34,.34-.55,.08-.21,.11-.42,.11-.65s-.04-.44-.11-.65c-.08-.21-.19-.39-.34-.55-.15-.16-.33-.29-.53-.38-.21-.1-.44-.14-.71-.14s-.5,.05-.71,.14c-.21,.1-.39,.22-.53,.38-.15,.16-.26,.34-.34,.55s-.11,.42-.11,.65Z"/><path class="cls-1" d="M372.5,60.32c-.28-.39-.66-.59-1.13-.59-.19,0-.38,.05-.56,.14-.18,.1-.28,.25-.28,.47,0,.18,.08,.3,.23,.38,.15,.08,.34,.15,.58,.2,.23,.06,.48,.11,.75,.17,.27,.06,.52,.15,.75,.28,.23,.12,.42,.29,.58,.51,.15,.22,.23,.51,.23,.89,0,.34-.07,.63-.22,.87-.15,.24-.34,.43-.58,.57-.24,.14-.5,.25-.8,.31s-.59,.1-.89,.1c-.45,0-.86-.06-1.24-.19s-.71-.36-1.01-.7l.96-.9c.18,.21,.38,.38,.59,.51,.21,.13,.47,.2,.77,.2,.1,0,.21-.01,.32-.04,.11-.02,.22-.06,.31-.12,.1-.06,.17-.13,.23-.21,.06-.08,.09-.18,.09-.29,0-.2-.08-.35-.23-.44-.15-.1-.34-.17-.58-.23-.23-.06-.48-.12-.75-.17-.27-.05-.52-.14-.75-.25s-.42-.28-.58-.49c-.15-.21-.23-.5-.23-.86,0-.32,.07-.6,.2-.83s.31-.43,.52-.58,.46-.26,.74-.34c.28-.07,.56-.11,.85-.11,.38,0,.76,.07,1.14,.2s.68,.36,.91,.68l-.96,.86Z"/></g></g></svg>