<?xml version="1.0" encoding="UTF-8"?><svg id="Layer_2" xmlns="http://www.w3.org/2000/svg" viewBox="0 0 133.84 37.64"><defs><style>.cls-1{fill:#c4a12e;}.cls-2{fill:#51648f;}</style></defs><g id="Layer_1-2"><g><g><path class="cls-2" d="M28.14,14.35c0-1.63,.27-3.1,.82-4.42,.55-1.32,1.31-2.44,2.28-3.37,.98-.93,2.13-1.64,3.47-2.14,1.34-.5,2.8-.75,4.39-.75s3.05,.25,4.39,.75c1.34,.5,2.5,1.21,3.47,2.14,.98,.93,1.74,2.05,2.28,3.37,.55,1.32,.82,2.79,.82,4.42s-.27,3.1-.82,4.42c-.55,1.32-1.31,2.45-2.28,3.37-.98,.93-2.13,1.64-3.47,2.14-1.34,.5-2.8,.75-4.39,.75s-3.05-.25-4.39-.75c-1.34-.5-2.5-1.21-3.47-2.14-.98-.93-1.74-2.05-2.28-3.37-.55-1.32-.82-2.79-.82-4.42Zm4.65,0c0,.96,.15,1.83,.44,2.63,.3,.79,.72,1.48,1.28,2.07s1.22,1.04,2,1.36c.78,.33,1.64,.49,2.6,.49s1.82-.16,2.6-.49c.78-.33,1.44-.78,2-1.36s.98-1.27,1.28-2.07c.3-.79,.44-1.67,.44-2.63s-.15-1.81-.44-2.61c-.3-.8-.72-1.5-1.28-2.08-.56-.58-1.22-1.04-2-1.36-.77-.33-1.64-.49-2.6-.49s-1.82,.16-2.6,.49c-.77,.33-1.44,.78-2,1.36-.56,.58-.98,1.28-1.28,2.08-.3,.8-.44,1.68-.44,2.61Z"/><path class="cls-2" d="M66.56,9.47c-.44-.54-.98-.95-1.62-1.23-.64-.29-1.38-.43-2.23-.43s-1.62,.16-2.34,.49c-.72,.33-1.34,.78-1.87,1.36-.53,.58-.94,1.28-1.23,2.08-.3,.8-.44,1.68-.44,2.61s.15,1.83,.44,2.63c.3,.79,.7,1.48,1.22,2.07,.52,.58,1.12,1.04,1.82,1.36,.7,.33,1.45,.49,2.25,.49,.92,0,1.73-.19,2.44-.57,.71-.38,1.29-.92,1.75-1.61l3.73,2.79c-.86,1.21-1.95,2.1-3.27,2.67-1.32,.57-2.68,.86-4.08,.86-1.59,0-3.05-.25-4.39-.75-1.34-.5-2.5-1.21-3.47-2.14-.98-.93-1.74-2.05-2.28-3.37-.55-1.32-.82-2.79-.82-4.42s.27-3.1,.82-4.42c.55-1.32,1.31-2.44,2.28-3.37,.98-.93,2.13-1.64,3.47-2.14,1.34-.5,2.8-.75,4.39-.75,.57,0,1.17,.05,1.79,.16,.62,.11,1.23,.27,1.84,.5,.6,.23,1.18,.54,1.74,.92,.55,.38,1.05,.85,1.49,1.41l-3.44,2.81Z"/><path class="cls-2" d="M73.07,4.19h6.72c1.63,0,3.17,.18,4.64,.55,1.46,.36,2.74,.95,3.83,1.77,1.09,.81,1.96,1.87,2.6,3.17,.64,1.3,.96,2.88,.96,4.74,0,1.65-.31,3.1-.93,4.35-.62,1.25-1.46,2.31-2.51,3.16-1.05,.85-2.27,1.5-3.65,1.94-1.38,.44-2.82,.66-4.33,.66h-7.32V4.19Zm4.48,16.19h2.33c1.03,0,2-.1,2.89-.32,.89-.21,1.66-.56,2.31-1.05,.65-.49,1.16-1.13,1.54-1.92,.37-.79,.56-1.77,.56-2.91,0-1-.19-1.86-.56-2.6-.37-.74-.88-1.34-1.51-1.82-.63-.48-1.37-.84-2.23-1.08s-1.75-.36-2.68-.36h-2.64v12.06Z"/><path class="cls-2" d="M95.18,4.19h4.48V20.38h8.3v4.13h-12.77V4.19Z"/><path class="cls-2" d="M118.83,4.19h3.7l8.84,20.33h-5.05l-1.75-4.31h-7.89l-1.69,4.31h-4.94l8.78-20.33Zm1.72,5.91l-2.47,6.32h4.97l-2.5-6.32Z"/></g><g><path class="cls-2" d="M23.24,26.43c-7.75,0-15.5,0-23.24,0,0,.3,0,.59,0,.89H23.25c0-.3,0-.59,0-.89Z"/><path class="cls-2" d="M23.25,7.84c0-.07,0-.15,0-.22,0-.15,0-.3,0-.44H0c0,.08,0,.15,0,.23h0c0,.07,0,.15,0,.22,0,.15,0,.3,0,.44H23.25c0-.08,0-.15,0-.23h0Z"/><rect class="cls-2" y="28.27" width="23.17" height="2.27"/><polygon class="cls-2" points="0 6.23 23.25 6.23 23.25 4.65 11.62 .48 0 4.65 0 6.23"/><g><g><path class="cls-1" d="M.94,10.27c0-.56,.46-1.02,1.02-1.02h.93c.56,0,1.02,.46,1.02,1.02v15.26s.46,0,.46,0V10.24c0-.82-.67-1.49-1.49-1.49h-.92c-.82,0-1.49,.67-1.49,1.49v15.3h.46V10.27Z"/><path class="cls-1" d="M3.29,10.39c0-.31-.21-.57-.48-.57h-.77c-.26,0-.48,.25-.48,.57v14.89c.47-.19,1.26-.21,1.72-.02V10.39Z"/></g><g><path class="cls-1" d="M21.68,10.39c0-.31-.21-.57-.48-.57h-.77c-.26,0-.48,.25-.48,.57v14.9c.47-.18,1.25-.18,1.72,0V10.39Z"/><path class="cls-1" d="M21.28,8.76h-.92c-.82,0-1.49,.67-1.49,1.49v15.3h.46V10.27c0-.56,.46-1.02,1.02-1.02h.93c.56,0,1.02,.46,1.02,1.02v15.28h.46V10.24c0-.82-.67-1.49-1.49-1.49Z"/></g><g><path class="cls-1" d="M9.42,10.39c0-.31-.21-.57-.48-.57h-.77c-.26,0-.48,.25-.48,.57v14.9c.47-.18,1.25-.18,1.72,0V10.39Z"/><path class="cls-1" d="M9.02,8.76h-.92c-.82,0-1.49,.67-1.49,1.49v15.3h.46V10.27c0-.56,.46-1.02,1.02-1.02h.93c.56,0,1.02,.46,1.02,1.02v15.26h.41v.02h.06V10.24c0-.82-.67-1.49-1.49-1.49Z"/></g></g><g><path class="cls-2" d="M12.22,10.61c-.08-.56,.32-1.07,.87-1.15l.93-.12c.56-.08,1.07,.32,1.15,.87l2.04,15.1,.46-.06-2.04-15.13c-.11-.81-.86-1.38-1.67-1.27l-.91,.12c-.81,.11-1.38,.86-1.27,1.67l2.04,15.13,.46-.06-2.04-15.1Z"/><path class="cls-2" d="M14.56,10.41c-.04-.31-.29-.53-.55-.5l-.76,.1c-.26,.03-.44,.32-.4,.62l1.99,14.76c.44-.24,1.22-.35,1.71-.23l-1.99-14.76Z"/></g></g><g><path class="cls-2" d="M29.31,29.03c0-.2,.03-.38,.1-.54,.07-.16,.16-.3,.28-.41s.26-.2,.42-.26c.16-.06,.34-.09,.54-.09s.37,.03,.54,.09c.16,.06,.31,.15,.42,.26s.21,.25,.28,.41c.07,.16,.1,.34,.1,.54s-.03,.38-.1,.54c-.07,.16-.16,.3-.28,.41s-.26,.2-.42,.26c-.16,.06-.34,.09-.54,.09s-.37-.03-.54-.09c-.16-.06-.31-.15-.42-.26s-.21-.25-.28-.41c-.07-.16-.1-.34-.1-.54Zm.57,0c0,.12,.02,.22,.05,.32,.04,.1,.09,.18,.16,.25,.07,.07,.15,.13,.24,.17,.09,.04,.2,.06,.32,.06s.22-.02,.32-.06c.09-.04,.18-.1,.24-.17,.07-.07,.12-.16,.16-.25,.04-.1,.05-.2,.05-.32s-.02-.22-.05-.32-.09-.18-.16-.25c-.07-.07-.15-.13-.24-.17-.09-.04-.2-.06-.32-.06s-.22,.02-.32,.06c-.09,.04-.18,.1-.24,.17-.07,.07-.12,.16-.16,.25s-.05,.2-.05,.32Z"/><path class="cls-2" d="M32.59,27.79h.96c.13,0,.25,.01,.36,.04,.11,.02,.21,.07,.3,.12,.09,.06,.15,.13,.2,.23,.05,.1,.08,.22,.08,.36,0,.18-.05,.32-.14,.45-.09,.12-.22,.2-.4,.23l.63,1.05h-.66l-.52-.99h-.27v.99h-.55v-2.48Zm.55,1.03h.32s.1,0,.16,0c.06,0,.1-.01,.15-.03s.08-.04,.11-.08c.03-.04,.04-.09,.04-.16,0-.06-.01-.11-.04-.15-.03-.04-.06-.07-.1-.09-.04-.02-.08-.03-.14-.04-.05,0-.1-.01-.15-.01h-.36v.56Z"/><path class="cls-2" d="M35.08,27.79h1.69v.5h-1.14v.46h1.08v.5h-1.08v.5h1.2v.5h-1.75v-2.48Z"/><path class="cls-2" d="M39.7,30.1c-.16,.08-.33,.15-.5,.18-.18,.04-.35,.06-.54,.06-.19,0-.37-.03-.54-.09-.16-.06-.31-.15-.42-.26s-.21-.25-.28-.41c-.07-.16-.1-.34-.1-.54s.03-.38,.1-.54c.07-.16,.16-.3,.28-.41s.26-.2,.42-.26c.16-.06,.34-.09,.54-.09s.38,.02,.55,.07,.31,.13,.44,.25l-.39,.42c-.08-.08-.16-.14-.25-.18-.09-.04-.21-.06-.35-.06-.12,0-.22,.02-.32,.06-.09,.04-.18,.1-.24,.17-.07,.07-.12,.16-.16,.25s-.05,.2-.05,.32,.02,.22,.05,.32c.04,.1,.09,.18,.16,.25,.07,.07,.15,.13,.24,.17,.09,.04,.2,.06,.32,.06s.22-.01,.31-.04,.16-.05,.21-.08v-.4h-.44v-.5h.97v1.3Z"/><path class="cls-2" d="M40.24,29.03c0-.2,.03-.38,.1-.54,.07-.16,.16-.3,.28-.41s.26-.2,.42-.26c.16-.06,.34-.09,.54-.09s.37,.03,.54,.09c.16,.06,.31,.15,.42,.26s.21,.25,.28,.41c.07,.16,.1,.34,.1,.54s-.03,.38-.1,.54c-.07,.16-.16,.3-.28,.41s-.26,.2-.42,.26c-.16,.06-.34,.09-.54,.09s-.37-.03-.54-.09c-.16-.06-.31-.15-.42-.26s-.21-.25-.28-.41c-.07-.16-.1-.34-.1-.54Zm.57,0c0,.12,.02,.22,.05,.32,.04,.1,.09,.18,.16,.25,.07,.07,.15,.13,.24,.17,.09,.04,.2,.06,.32,.06s.22-.02,.32-.06c.09-.04,.18-.1,.24-.17,.07-.07,.12-.16,.16-.25,.04-.1,.05-.2,.05-.32s-.02-.22-.05-.32-.09-.18-.16-.25c-.07-.07-.15-.13-.24-.17-.09-.04-.2-.06-.32-.06s-.22,.02-.32,.06c-.09,.04-.18,.1-.24,.17-.07,.07-.12,.16-.16,.25s-.05,.2-.05,.32Z"/><path class="cls-2" d="M43.48,27.79h.74l1.05,1.72h0v-1.72h.55v2.48h-.71l-1.08-1.77h0v1.77h-.55v-2.48Z"/><path class="cls-2" d="M49.39,28.44c-.05-.07-.12-.12-.2-.15-.08-.04-.17-.05-.27-.05s-.2,.02-.29,.06c-.09,.04-.16,.1-.23,.17-.06,.07-.11,.16-.15,.25s-.05,.2-.05,.32,.02,.22,.05,.32c.04,.1,.09,.18,.15,.25s.14,.13,.22,.17c.09,.04,.18,.06,.27,.06,.11,0,.21-.02,.3-.07,.09-.05,.16-.11,.21-.2l.46,.34c-.11,.15-.24,.26-.4,.33-.16,.07-.33,.1-.5,.1-.19,0-.37-.03-.54-.09-.16-.06-.31-.15-.42-.26s-.21-.25-.28-.41c-.07-.16-.1-.34-.1-.54s.03-.38,.1-.54c.07-.16,.16-.3,.28-.41s.26-.2,.42-.26c.16-.06,.34-.09,.54-.09,.07,0,.14,0,.22,.02,.08,.01,.15,.03,.22,.06,.07,.03,.14,.07,.21,.11,.07,.05,.13,.1,.18,.17l-.42,.34Z"/><path class="cls-2" d="M50.36,27.79h.96c.13,0,.25,.01,.36,.04,.11,.02,.21,.07,.3,.12,.09,.06,.15,.13,.2,.23,.05,.1,.08,.22,.08,.36,0,.18-.05,.32-.14,.45-.09,.12-.22,.2-.4,.23l.63,1.05h-.66l-.52-.99h-.27v.99h-.55v-2.48Zm.55,1.03h.32s.1,0,.16,0c.06,0,.1-.01,.15-.03s.08-.04,.11-.08c.03-.04,.04-.09,.04-.16,0-.06-.01-.11-.04-.15-.03-.04-.06-.07-.1-.09-.04-.02-.08-.03-.14-.04-.05,0-.1-.01-.15-.01h-.36v.56Z"/><path class="cls-2" d="M52.81,27.79h.55v2.48h-.55v-2.48Z"/><path class="cls-2" d="M54.05,27.79h.83l.57,1.62h0l.57-1.62h.82v2.48h-.55v-1.9h0l-.65,1.9h-.42l-.63-1.9h0v1.9h-.55v-2.48Z"/><path class="cls-2" d="M57.55,27.79h.55v2.48h-.55v-2.48Z"/><path class="cls-2" d="M58.78,27.79h.74l1.05,1.72h0v-1.72h.55v2.48h-.71l-1.08-1.77h0v1.77h-.55v-2.48Z"/><path class="cls-2" d="M62.65,27.79h.45l1.08,2.48h-.62l-.21-.53h-.96l-.21,.53h-.6l1.07-2.48Zm.21,.72l-.3,.77h.61l-.3-.77Z"/><path class="cls-2" d="M64.64,27.79h.55v1.98h1.01v.5h-1.56v-2.48Z"/><path class="cls-2" d="M67.93,27.79h.82c.2,0,.39,.02,.57,.07s.33,.12,.47,.22c.13,.1,.24,.23,.32,.39,.08,.16,.12,.35,.12,.58,0,.2-.04,.38-.11,.53-.08,.15-.18,.28-.31,.39-.13,.1-.28,.18-.45,.24s-.34,.08-.53,.08h-.89v-2.48Zm.55,1.98h.28c.13,0,.24-.01,.35-.04,.11-.03,.2-.07,.28-.13s.14-.14,.19-.23c.05-.1,.07-.22,.07-.36,0-.12-.02-.23-.07-.32-.05-.09-.11-.16-.18-.22-.08-.06-.17-.1-.27-.13-.1-.03-.21-.04-.33-.04h-.32v1.47Z"/><path class="cls-2" d="M70.8,27.79h1.69v.5h-1.14v.46h1.08v.5h-1.08v.5h1.2v.5h-1.75v-2.48Z"/><path class="cls-2" d="M73.25,27.79h1.66v.5h-1.12v.5h1.03v.5h-1.03v.97h-.55v-2.48Z"/><path class="cls-2" d="M75.53,27.79h1.69v.5h-1.14v.46h1.08v.5h-1.08v.5h1.2v.5h-1.75v-2.48Z"/><path class="cls-2" d="M77.91,27.79h.74l1.05,1.72h0v-1.72h.55v2.48h-.71l-1.08-1.77h0v1.77h-.55v-2.48Z"/><path class="cls-2" d="M82.22,28.4c-.04-.06-.1-.1-.18-.12-.08-.03-.15-.04-.22-.04-.04,0-.08,0-.12,.01s-.08,.02-.12,.04c-.04,.02-.07,.05-.09,.08s-.04,.07-.04,.12c0,.08,.03,.13,.08,.17,.06,.04,.13,.07,.21,.1,.08,.03,.18,.06,.27,.08,.1,.03,.19,.07,.28,.12,.08,.05,.16,.12,.21,.21s.08,.2,.08,.35-.03,.26-.08,.36c-.05,.1-.12,.19-.21,.26-.09,.07-.19,.12-.3,.15s-.24,.05-.37,.05c-.16,0-.31-.02-.45-.07-.14-.05-.27-.13-.39-.24l.39-.43c.06,.07,.13,.13,.21,.17,.09,.04,.17,.06,.26,.06,.04,0,.09,0,.14-.02,.05-.01,.09-.03,.12-.05s.07-.05,.09-.08c.02-.03,.03-.07,.03-.12,0-.07-.03-.13-.09-.18-.06-.04-.13-.08-.22-.11s-.18-.06-.28-.09-.19-.07-.28-.12-.16-.12-.22-.2c-.06-.08-.09-.2-.09-.33s.03-.25,.08-.35,.12-.18,.21-.25c.09-.07,.19-.12,.3-.15,.11-.03,.23-.05,.35-.05,.14,0,.28,.02,.41,.06,.13,.04,.25,.11,.35,.2l-.38,.41Z"/><path class="cls-2" d="M83.21,27.79h1.69v.5h-1.14v.46h1.08v.5h-1.08v.5h1.2v.5h-1.75v-2.48Z"/><path class="cls-2" d="M86.85,27.79h.55v1.98h1.01v.5h-1.56v-2.48Z"/><path class="cls-2" d="M89.72,27.79h.45l1.08,2.48h-.62l-.21-.53h-.96l-.21,.53h-.6l1.07-2.48Zm.21,.72l-.3,.77h.61l-.3-.77Z"/><path class="cls-2" d="M91.2,27.79h.6l.4,1.59h0l.52-1.59h.51l.52,1.63h0l.42-1.63h.55l-.73,2.48h-.49l-.55-1.72h0l-.55,1.72h-.47l-.74-2.48Z"/><path class="cls-2" d="M95.82,29.21l-.93-1.42h.68l.53,.93,.56-.93h.65l-.93,1.42v1.06h-.55v-1.06Z"/><path class="cls-2" d="M97.7,27.79h1.69v.5h-1.14v.46h1.08v.5h-1.08v.5h1.2v.5h-1.75v-2.48Z"/><path class="cls-2" d="M100.08,27.79h.96c.13,0,.25,.01,.36,.04,.11,.02,.21,.07,.3,.12,.09,.06,.15,.13,.2,.23,.05,.1,.08,.22,.08,.36,0,.18-.05,.32-.14,.45-.09,.12-.22,.2-.4,.23l.63,1.05h-.66l-.52-.99h-.27v.99h-.55v-2.48Zm.55,1.03h.32s.1,0,.16,0c.06,0,.1-.01,.15-.03s.08-.04,.11-.08c.03-.04,.04-.09,.04-.16,0-.06-.01-.11-.04-.15-.03-.04-.06-.07-.1-.09-.04-.02-.08-.03-.14-.04-.05,0-.1-.01-.15-.01h-.36v.56Z"/><path class="cls-2" d="M103.77,28.4c-.04-.06-.1-.1-.18-.12-.08-.03-.15-.04-.22-.04-.04,0-.08,0-.12,.01s-.08,.02-.12,.04c-.04,.02-.07,.05-.09,.08s-.04,.07-.04,.12c0,.08,.03,.13,.08,.17,.06,.04,.13,.07,.21,.1,.08,.03,.18,.06,.27,.08,.1,.03,.19,.07,.28,.12,.08,.05,.16,.12,.21,.21s.08,.2,.08,.35-.03,.26-.08,.36c-.05,.1-.12,.19-.21,.26-.09,.07-.19,.12-.3,.15s-.24,.05-.37,.05c-.16,0-.31-.02-.45-.07-.14-.05-.27-.13-.39-.24l.39-.43c.06,.07,.13,.13,.21,.17,.09,.04,.17,.06,.26,.06,.04,0,.09,0,.14-.02,.05-.01,.09-.03,.12-.05s.07-.05,.09-.08c.02-.03,.03-.07,.03-.12,0-.07-.03-.13-.09-.18-.06-.04-.13-.08-.22-.11s-.18-.06-.28-.09-.19-.07-.28-.12-.16-.12-.22-.2c-.06-.08-.09-.2-.09-.33s.03-.25,.08-.35,.12-.18,.21-.25c.09-.07,.19-.12,.3-.15,.11-.03,.23-.05,.35-.05,.14,0,.28,.02,.41,.06,.13,.04,.25,.11,.35,.2l-.38,.41Z"/><path class="cls-2" d="M106.79,27.79h.45l1.08,2.48h-.62l-.21-.53h-.96l-.21,.53h-.6l1.07-2.48Zm.21,.72l-.3,.77h.61l-.3-.77Z"/><path class="cls-2" d="M109.99,28.4c-.04-.06-.1-.1-.18-.12-.08-.03-.15-.04-.22-.04-.04,0-.08,0-.12,.01s-.08,.02-.12,.04c-.04,.02-.07,.05-.09,.08s-.04,.07-.04,.12c0,.08,.03,.13,.08,.17,.06,.04,.13,.07,.21,.1,.08,.03,.18,.06,.27,.08,.1,.03,.19,.07,.28,.12,.08,.05,.16,.12,.21,.21s.08,.2,.08,.35-.03,.26-.08,.36c-.05,.1-.12,.19-.21,.26-.09,.07-.19,.12-.3,.15s-.24,.05-.37,.05c-.16,0-.31-.02-.45-.07-.14-.05-.27-.13-.39-.24l.39-.43c.06,.07,.13,.13,.21,.17,.09,.04,.17,.06,.26,.06,.04,0,.09,0,.14-.02,.05-.01,.09-.03,.12-.05s.07-.05,.09-.08c.02-.03,.03-.07,.03-.12,0-.07-.03-.13-.09-.18-.06-.04-.13-.08-.22-.11s-.18-.06-.28-.09-.19-.07-.28-.12-.16-.12-.22-.2c-.06-.08-.09-.2-.09-.33s.03-.25,.08-.35,.12-.18,.21-.25c.09-.07,.19-.12,.3-.15,.11-.03,.23-.05,.35-.05,.14,0,.28,.02,.41,.06,.13,.04,.25,.11,.35,.2l-.38,.41Z"/><path class="cls-2" d="M112.2,28.4c-.04-.06-.1-.1-.18-.12-.08-.03-.15-.04-.22-.04-.04,0-.08,0-.12,.01s-.08,.02-.12,.04c-.04,.02-.07,.05-.09,.08s-.04,.07-.04,.12c0,.08,.03,.13,.08,.17,.06,.04,.13,.07,.21,.1,.08,.03,.18,.06,.27,.08,.1,.03,.19,.07,.28,.12,.08,.05,.16,.12,.21,.21s.08,.2,.08,.35-.03,.26-.08,.36c-.05,.1-.12,.19-.21,.26-.09,.07-.19,.12-.3,.15s-.24,.05-.37,.05c-.16,0-.31-.02-.45-.07-.14-.05-.27-.13-.39-.24l.39-.43c.06,.07,.13,.13,.21,.17,.09,.04,.17,.06,.26,.06,.04,0,.09,0,.14-.02,.05-.01,.09-.03,.12-.05s.07-.05,.09-.08c.02-.03,.03-.07,.03-.12,0-.07-.03-.13-.09-.18-.06-.04-.13-.08-.22-.11s-.18-.06-.28-.09-.19-.07-.28-.12-.16-.12-.22-.2c-.06-.08-.09-.2-.09-.33s.03-.25,.08-.35,.12-.18,.21-.25c.09-.07,.19-.12,.3-.15,.11-.03,.23-.05,.35-.05,.14,0,.28,.02,.41,.06,.13,.04,.25,.11,.35,.2l-.38,.41Z"/><path class="cls-2" d="M113.04,29.03c0-.2,.03-.38,.1-.54,.07-.16,.16-.3,.28-.41s.26-.2,.42-.26c.16-.06,.34-.09,.54-.09s.37,.03,.54,.09c.16,.06,.31,.15,.42,.26s.21,.25,.28,.41c.07,.16,.1,.34,.1,.54s-.03,.38-.1,.54c-.07,.16-.16,.3-.28,.41s-.26,.2-.42,.26c-.16,.06-.34,.09-.54,.09s-.37-.03-.54-.09c-.16-.06-.31-.15-.42-.26s-.21-.25-.28-.41c-.07-.16-.1-.34-.1-.54Zm.57,0c0,.12,.02,.22,.05,.32,.04,.1,.09,.18,.16,.25,.07,.07,.15,.13,.24,.17,.09,.04,.2,.06,.32,.06s.22-.02,.32-.06c.09-.04,.18-.1,.24-.17,.07-.07,.12-.16,.16-.25,.04-.1,.05-.2,.05-.32s-.02-.22-.05-.32-.09-.18-.16-.25c-.07-.07-.15-.13-.24-.17-.09-.04-.2-.06-.32-.06s-.22,.02-.32,.06c-.09,.04-.18,.1-.24,.17-.07,.07-.12,.16-.16,.25s-.05,.2-.05,.32Z"/><path class="cls-2" d="M117.91,28.44c-.05-.07-.12-.12-.2-.15-.08-.04-.17-.05-.27-.05s-.2,.02-.29,.06c-.09,.04-.16,.1-.23,.17-.06,.07-.11,.16-.15,.25s-.05,.2-.05,.32,.02,.22,.05,.32c.04,.1,.09,.18,.15,.25s.14,.13,.22,.17c.09,.04,.18,.06,.27,.06,.11,0,.21-.02,.3-.07,.09-.05,.16-.11,.21-.2l.46,.34c-.11,.15-.24,.26-.4,.33-.16,.07-.33,.1-.5,.1-.19,0-.37-.03-.54-.09-.16-.06-.31-.15-.42-.26s-.21-.25-.28-.41c-.07-.16-.1-.34-.1-.54s.03-.38,.1-.54c.07-.16,.16-.3,.28-.41s.26-.2,.42-.26c.16-.06,.34-.09,.54-.09,.07,0,.14,0,.22,.02,.08,.01,.15,.03,.22,.06,.07,.03,.14,.07,.21,.11,.07,.05,.13,.1,.18,.17l-.42,.34Z"/><path class="cls-2" d="M118.87,27.79h.55v2.48h-.55v-2.48Z"/><path class="cls-2" d="M120.92,27.79h.45l1.08,2.48h-.62l-.21-.53h-.96l-.21,.53h-.6l1.07-2.48Zm.21,.72l-.3,.77h.61l-.3-.77Z"/><path class="cls-2" d="M123.05,28.27h-.71v-.48h1.96v.48h-.71v2h-.55v-2Z"/><path class="cls-2" d="M124.77,27.79h.55v2.48h-.55v-2.48Z"/><path class="cls-2" d="M125.88,29.03c0-.2,.03-.38,.1-.54,.07-.16,.16-.3,.28-.41s.26-.2,.42-.26c.16-.06,.34-.09,.54-.09s.37,.03,.54,.09c.16,.06,.31,.15,.42,.26s.21,.25,.28,.41c.07,.16,.1,.34,.1,.54s-.03,.38-.1,.54c-.07,.16-.16,.3-.28,.41s-.26,.2-.42,.26c-.16,.06-.34,.09-.54,.09s-.37-.03-.54-.09c-.16-.06-.31-.15-.42-.26s-.21-.25-.28-.41c-.07-.16-.1-.34-.1-.54Zm.57,0c0,.12,.02,.22,.05,.32,.04,.1,.09,.18,.16,.25,.07,.07,.15,.13,.24,.17,.09,.04,.2,.06,.32,.06s.22-.02,.32-.06c.09-.04,.18-.1,.24-.17,.07-.07,.12-.16,.16-.25,.04-.1,.05-.2,.05-.32s-.02-.22-.05-.32-.09-.18-.16-.25c-.07-.07-.15-.13-.24-.17-.09-.04-.2-.06-.32-.06s-.22,.02-.32,.06c-.09,.04-.18,.1-.24,.17-.07,.07-.12,.16-.16,.25s-.05,.2-.05,.32Z"/><path class="cls-2" d="M129.12,27.79h.74l1.05,1.72h0v-1.72h.55v2.48h-.71l-1.08-1.77h0v1.77h-.55v-2.48Z"/></g></g></g></svg>